<?xml version="1.0" encoding="utf-8"?>
<!-- Generator: Adobe Illustrator 24.0.0, SVG Export Plug-In . SVG Version: 6.00 Build 0)  -->
<svg version="1.1" id="Layer_1" xmlns="http://www.w3.org/2000/svg" xmlns:xlink="http://www.w3.org/1999/xlink" x="0px" y="0px"
	 viewBox="0 0 256 256" style="enable-background:new 0 0 256 256;" xml:space="preserve">
<style type="text/css">
	.st0{fill:#382B73;}
	.st1{fill:#291B4A;}
	.st2{fill:#ED9ABC;}
	.st3{fill:#E54890;}
	.st4{fill:#D3D3D3;}
	.st5{fill:#EBE7F2;}
	.st6{fill:#F9B087;}
	.st7{fill:#FF8639;}
	.st8{fill:#65C1D6;}
	.st9{fill:#149CB2;}
</style>
<g>
	<g>
		<g>
			<g>
				<g>
					<circle class="st0" cx="128" cy="128" r="119.4"/>
				</g>
			</g>
		</g>
	</g>
	<g>
		<g>
			<g>
				<g>
					<path class="st1" d="M116.577,132c0,6.298,5.125,11.423,11.423,11.423s11.423-5.125,11.423-11.423s-5.125-11.423-11.423-11.423
						S116.577,125.702,116.577,132z M134.423,132c0,3.542-2.881,6.423-6.423,6.423s-6.423-2.881-6.423-6.423
						s2.881-6.423,6.423-6.423S134.423,128.458,134.423,132z"/>
				</g>
			</g>
		</g>
		<g>
			<g>
				<g>
					<path class="st1" d="M62.235,196.544h43.041l20.957,20.958c0.469,0.469,1.104,0.732,1.768,0.732s1.299-0.263,1.768-0.732
						l20.957-20.958h43.041c1.381,0,2.5-1.119,2.5-2.5v-42.746c10.396-1.242,18.487-10.099,18.487-20.824
						s-8.091-19.582-18.487-20.824V69.956c0-1.381-1.119-2.5-2.5-2.5h-43.041l-20.957-20.958c-0.938-0.938-2.598-0.938-3.535,0
						l-20.957,20.958H62.235c-1.381,0-2.5,1.119-2.5,2.5v39.695c-10.396,1.242-18.487,10.099-18.487,20.824
						s8.091,19.582,18.487,20.824v42.746C59.735,195.425,60.854,196.544,62.235,196.544z M64.735,191.544v-40.246
						c9.061-1.082,16.363-7.948,18.09-16.798h15.019v0.411c0,2.309,1.561,4.326,3.8,4.906l4.614,1.189l-2.424,4.106
						c-1.171,1.99-0.848,4.52,0.785,6.153l4.116,4.116c1.632,1.634,4.163,1.957,6.156,0.782l4.104-2.422l1.19,4.618
						c0.579,2.236,2.596,3.797,4.905,3.797h0.411v9.163l-20.225,20.225H64.735z M112.253,123.314l-4.1-7.045l4.195-4.128
						l6.966,4.112c0.676,0.399,1.501,0.457,2.228,0.157c0.726-0.301,1.269-0.925,1.464-1.686l2.083-7.88l5.886,0.047l2.018,7.833
						c0.196,0.761,0.738,1.385,1.464,1.686c0.726,0.301,1.551,0.243,2.228-0.157l7.045-4.1l4.128,4.196l-4.111,6.966
						c-0.399,0.676-0.458,1.501-0.157,2.227c0.3,0.726,0.925,1.268,1.686,1.464l7.833,2.019l0.624-2.421l-0.576,2.485l-0.047,5.886
						l-7.833,2.018c-0.761,0.196-1.385,0.738-1.686,1.464c-0.301,0.726-0.243,1.551,0.157,2.227l4.1,7.045l-4.196,4.128
						l-6.966-4.111c-0.677-0.4-1.502-0.458-2.227-0.157c-0.726,0.301-1.269,0.925-1.464,1.686l-2.083,7.88l-5.886-0.047
						l-2.018-7.833c-0.196-0.761-0.738-1.385-1.464-1.686c-0.307-0.127-0.632-0.19-0.957-0.19c-0.441,0-0.881,0.117-1.271,0.347
						l-7.045,4.1l-4.128-4.195l4.112-6.966c0.399-0.677,0.458-1.502,0.157-2.228c-0.301-0.726-0.925-1.269-1.686-1.464l-7.88-2.083
						l0.048-5.886l7.833-2.019c0.761-0.196,1.385-0.738,1.686-1.464C112.711,124.816,112.653,123.991,112.253,123.314z M128,212.198
						l-18.154-18.154L128,175.89l18.154,18.154L128,212.198z M191.265,191.544h-40.541L130.5,171.319v-9.163h0.411
						c2.309,0,4.326-1.561,4.906-3.8l1.189-4.614l4.105,2.423c1.99,1.171,4.521,0.85,6.154-0.784l4.116-4.116
						c1.633-1.633,1.956-4.164,0.782-6.156l-2.422-4.104l4.618-1.19c2.236-0.579,3.797-2.596,3.797-4.905V134.5h15.019
						c1.727,8.849,9.029,15.715,18.09,16.798V191.544z M209.752,130.474c0,8.815-7.172,15.987-15.987,15.987
						c-8.815,0-15.987-7.172-15.987-15.987s7.172-15.987,15.987-15.987C202.581,114.487,209.752,121.659,209.752,130.474z
						 M191.265,72.456v37.195c-10.077,1.204-17.962,9.569-18.437,19.849h-14.671v-0.411c0-2.31-1.562-4.327-3.798-4.906
						c0,0-0.001,0-0.002,0l-4.615-1.189l2.423-4.106c1.172-1.99,0.85-4.521-0.784-6.154l-4.116-4.116
						c-1.633-1.633-4.163-1.954-6.156-0.782l-4.103,2.422l-1.19-4.617c-0.579-2.235-2.596-3.797-4.905-3.797H130.5v-9.163
						l20.225-20.225H191.265z M128,51.802l18.154,18.154L128,88.11l-18.154-18.154L128,51.802z M64.735,72.456h40.541L125.5,92.681
						v9.163h-0.411c-2.309,0-4.326,1.562-4.906,3.8l-1.189,4.614l-4.106-2.424c-1.989-1.17-4.52-0.849-6.153,0.784l-4.116,4.116
						c-1.633,1.633-1.956,4.163-0.783,6.156l2.422,4.104l-4.617,1.189c-2.236,0.579-3.798,2.596-3.798,4.906v0.411H83.172
						c-0.475-10.281-8.36-18.646-18.437-19.849V72.456z M46.248,130.474c0-8.703,6.994-15.791,15.655-15.97
						c0.11,0.015,0.218,0.033,0.332,0.033s0.222-0.019,0.332-0.033c8.661,0.179,15.655,7.267,15.655,15.97
						c0,8.815-7.172,15.987-15.987,15.987C53.419,146.461,46.248,139.289,46.248,130.474z"/>
				</g>
			</g>
		</g>
	</g>
	<g>
		<g>
			<g>
				<g>
					<g>
						<path class="st8" d="M62.235,63.456c-1.381,0-2.5,1.119-2.5,2.5v41.082c0,1.381,1.119,2.5,2.5,2.5s2.5-1.119,2.5-2.5V68.456
							h41.576c1.381,0,2.5-1.119,2.5-2.5s-1.119-2.5-2.5-2.5H62.235z"/>
					</g>
				</g>
			</g>
			<g>
				<g>
					<g>
						<path class="st8" d="M193.765,110.487c1.381,0,2.5-1.119,2.5-2.5V65.956c0-1.381-1.119-2.5-2.5-2.5h-44.076
							c-1.381,0-2.5,1.119-2.5,2.5s1.119,2.5,2.5,2.5h41.576v39.531C191.265,109.368,192.384,110.487,193.765,110.487z"/>
					</g>
				</g>
			</g>
			<g>
				<g>
					<g>
						<path class="st8" d="M62.235,142.461c-1.381,0-2.5,1.119-2.5,2.5v45.083c0,1.381,1.119,2.5,2.5,2.5h44.076
							c1.381,0,2.5-1.119,2.5-2.5s-1.119-2.5-2.5-2.5H64.735v-42.583C64.735,143.58,63.616,142.461,62.235,142.461z"/>
					</g>
				</g>
			</g>
			<g>
				<g>
					<g>
						<path class="st8" d="M191.265,144.961v42.583h-41.576c-1.381,0-2.5,1.119-2.5,2.5s1.119,2.5,2.5,2.5h44.076
							c1.381,0,2.5-1.119,2.5-2.5v-45.083c0-1.381-1.119-2.5-2.5-2.5S191.265,143.58,191.265,144.961z"/>
					</g>
				</g>
			</g>
			<g>
				<g>
					<g>
						<path class="st8" d="M155.656,125.5c-1.381,0-2.5,1.119-2.5,2.5s1.119,2.5,2.5,2.5h19.622c1.381,0,2.5-1.119,2.5-2.5
							s-1.119-2.5-2.5-2.5H155.656z"/>
					</g>
				</g>
			</g>
			<g>
				<g>
					<g>
						<path class="st8" d="M80.654,125.5c-1.381,0-2.5,1.119-2.5,2.5s1.119,2.5,2.5,2.5h19.69c1.381,0,2.5-1.119,2.5-2.5
							s-1.119-2.5-2.5-2.5H80.654z"/>
					</g>
				</g>
			</g>
			<g>
				<g>
					<g>
						<path class="st8" d="M125.5,87.646v12.698c0,1.381,1.119,2.5,2.5,2.5s2.5-1.119,2.5-2.5V87.646c0-1.381-1.119-2.5-2.5-2.5
							S125.5,86.265,125.5,87.646z"/>
					</g>
				</g>
			</g>
			<g>
				<g>
					<g>
						<path class="st8" d="M125.5,155.656v12.698c0,1.381,1.119,2.5,2.5,2.5s2.5-1.119,2.5-2.5v-12.698c0-1.381-1.119-2.5-2.5-2.5
							S125.5,154.275,125.5,155.656z"/>
					</g>
				</g>
			</g>
			<g>
				<g>
					<g>
						<g>
							<path class="st9" d="M62.235,63.456c-1.381,0-2.5,1.119-2.5,2.5v41.082c0,1.381,1.119,2.5,2.5,2.5s2.5-1.119,2.5-2.5V68.456
								h41.576c1.381,0,2.5-1.119,2.5-2.5s-1.119-2.5-2.5-2.5H62.235z M107.311,65.956c0,0.551-0.449,1-1,1H64.735
								c-0.828,0-1.5,0.672-1.5,1.5v38.582c0,0.551-0.449,1-1,1s-1-0.449-1-1V65.956c0-0.551,0.449-1,1-1h44.076
								C106.862,64.956,107.311,65.405,107.311,65.956z"/>
						</g>
					</g>
				</g>
				<g>
					<g>
						<g>
							<path class="st9" d="M193.765,110.487c1.381,0,2.5-1.119,2.5-2.5V65.956c0-1.381-1.119-2.5-2.5-2.5h-44.076
								c-1.381,0-2.5,1.119-2.5,2.5s1.119,2.5,2.5,2.5h41.576v39.531C191.265,109.368,192.384,110.487,193.765,110.487z
								 M149.689,66.956c-0.551,0-1-0.449-1-1s0.449-1,1-1h44.076c0.551,0,1,0.449,1,1v42.031c0,0.551-0.449,1-1,1s-1-0.449-1-1
								V68.456c0-0.828-0.672-1.5-1.5-1.5H149.689z"/>
						</g>
					</g>
				</g>
				<g>
					<g>
						<g>
							<path class="st9" d="M62.235,142.461c-1.381,0-2.5,1.119-2.5,2.5v45.083c0,1.381,1.119,2.5,2.5,2.5h44.076
								c1.381,0,2.5-1.119,2.5-2.5s-1.119-2.5-2.5-2.5H64.735v-42.583C64.735,143.58,63.616,142.461,62.235,142.461z
								 M106.311,189.044c0.551,0,1,0.449,1,1s-0.449,1-1,1H62.235c-0.551,0-1-0.449-1-1v-45.083c0-0.551,0.449-1,1-1s1,0.449,1,1
								v42.583c0,0.828,0.672,1.5,1.5,1.5H106.311z"/>
						</g>
					</g>
				</g>
				<g>
					<g>
						<g>
							<path class="st9" d="M191.265,144.961v42.583h-41.576c-1.381,0-2.5,1.119-2.5,2.5s1.119,2.5,2.5,2.5h44.076
								c1.381,0,2.5-1.119,2.5-2.5v-45.083c0-1.381-1.119-2.5-2.5-2.5S191.265,143.58,191.265,144.961z M194.765,144.961v45.083
								c0,0.551-0.449,1-1,1h-44.076c-0.551,0-1-0.449-1-1s0.449-1,1-1h41.576c0.828,0,1.5-0.672,1.5-1.5v-42.583
								c0-0.551,0.449-1,1-1S194.765,144.41,194.765,144.961z"/>
						</g>
					</g>
				</g>
				<g>
					<g>
						<g>
							<path class="st9" d="M155.656,125.5c-1.381,0-2.5,1.119-2.5,2.5s1.119,2.5,2.5,2.5h19.622c1.381,0,2.5-1.119,2.5-2.5
								s-1.119-2.5-2.5-2.5H155.656z M176.278,128c0,0.551-0.449,1-1,1h-19.622c-0.551,0-1-0.449-1-1s0.449-1,1-1h19.622
								C175.83,127,176.278,127.449,176.278,128z"/>
						</g>
					</g>
				</g>
				<g>
					<g>
						<g>
							<path class="st9" d="M80.654,125.5c-1.381,0-2.5,1.119-2.5,2.5s1.119,2.5,2.5,2.5h19.69c1.381,0,2.5-1.119,2.5-2.5
								s-1.119-2.5-2.5-2.5H80.654z M101.344,128c0,0.551-0.449,1-1,1h-19.69c-0.551,0-1-0.449-1-1s0.449-1,1-1h19.69
								C100.895,127,101.344,127.449,101.344,128z"/>
						</g>
					</g>
				</g>
				<g>
					<g>
						<g>
							<path class="st9" d="M125.5,87.646v12.698c0,1.381,1.119,2.5,2.5,2.5s2.5-1.119,2.5-2.5V87.646c0-1.381-1.119-2.5-2.5-2.5
								S125.5,86.265,125.5,87.646z M129,87.646v12.698c0,0.551-0.449,1-1,1s-1-0.449-1-1V87.646c0-0.551,0.449-1,1-1
								S129,87.094,129,87.646z"/>
						</g>
					</g>
				</g>
				<g>
					<g>
						<g>
							<path class="st9" d="M125.5,155.656v12.698c0,1.381,1.119,2.5,2.5,2.5s2.5-1.119,2.5-2.5v-12.698c0-1.381-1.119-2.5-2.5-2.5
								S125.5,154.275,125.5,155.656z M129,155.656v12.698c0,0.551-0.449,1-1,1s-1-0.449-1-1v-12.698c0-0.551,0.449-1,1-1
								S129,155.105,129,155.656z"/>
						</g>
					</g>
				</g>
			</g>
			<g>
				<g>
					<g>
						<g>
							<g>
								<path class="st6" d="M158.156,130.911v-5.821c0-2.31-1.562-4.327-3.798-4.906c0,0-0.001,0-0.002,0l-4.615-1.189l2.423-4.106
									c1.172-1.99,0.85-4.521-0.784-6.154l-4.116-4.116c-1.633-1.633-4.163-1.954-6.156-0.782l-4.103,2.422l-1.19-4.617
									c-0.579-2.235-2.596-3.797-4.905-3.797h-5.821c-2.309,0-4.326,1.562-4.906,3.8l-1.189,4.614l-4.106-2.424
									c-1.989-1.17-4.52-0.849-6.153,0.784l-4.116,4.116c-1.633,1.633-1.956,4.163-0.783,6.156l2.422,4.104l-4.617,1.189
									c-2.236,0.579-3.798,2.596-3.798,4.906v5.821c0,2.309,1.561,4.326,3.8,4.906l4.614,1.189l-2.424,4.106
									c-1.171,1.99-0.848,4.52,0.785,6.153l4.116,4.116c1.632,1.634,4.163,1.957,6.156,0.782l4.104-2.422l1.19,4.618
									c0.579,2.236,2.596,3.797,4.905,3.797h5.821c2.309,0,4.326-1.561,4.906-3.8l1.189-4.614l4.105,2.423
									c1.99,1.172,4.521,0.85,6.154-0.784l4.116-4.116c1.633-1.633,1.956-4.164,0.782-6.156l-2.422-4.104l4.618-1.19
									C156.595,135.237,158.156,133.22,158.156,130.911z M153.156,125.089l-0.047,5.886l-7.833,2.018
									c-0.761,0.196-1.385,0.738-1.686,1.464c-0.301,0.726-0.243,1.551,0.157,2.227l4.1,7.045l-4.196,4.128l-6.966-4.111
									c-0.677-0.4-1.502-0.458-2.227-0.157c-0.726,0.301-1.269,0.925-1.464,1.686l-2.083,7.88l-5.886-0.047l-2.018-7.833
									c-0.196-0.761-0.738-1.385-1.464-1.686c-0.307-0.127-0.632-0.19-0.957-0.19c-0.441,0-0.881,0.117-1.271,0.347l-7.045,4.1
									l-4.128-4.195l4.112-6.966c0.399-0.677,0.458-1.502,0.157-2.228c-0.301-0.726-0.925-1.269-1.686-1.464l-7.88-2.083
									l0.048-5.886l7.833-2.019c0.761-0.196,1.385-0.738,1.686-1.464c0.301-0.726,0.243-1.551-0.157-2.228l-4.1-7.045l4.195-4.128
									l6.966,4.112c0.676,0.399,1.501,0.458,2.228,0.157s1.269-0.925,1.464-1.686l2.083-7.88l5.886,0.047l2.018,7.833
									c0.196,0.761,0.738,1.385,1.464,1.686c0.726,0.301,1.551,0.243,2.228-0.157l7.045-4.1l4.128,4.196l-4.111,6.966
									c-0.399,0.676-0.458,1.501-0.157,2.227c0.3,0.726,0.925,1.268,1.686,1.464l7.833,2.019l0.624-2.421L153.156,125.089z"/>
							</g>
						</g>
					</g>
					<g>
						<g>
							<g>
								<path class="st4" d="M116.577,128c0,6.298,5.125,11.423,11.423,11.423s11.423-5.125,11.423-11.423
									s-5.125-11.423-11.423-11.423S116.577,121.702,116.577,128z M134.423,128c0,3.542-2.881,6.423-6.423,6.423
									s-6.423-2.881-6.423-6.423s2.881-6.423,6.423-6.423S134.423,124.458,134.423,128z"/>
							</g>
						</g>
					</g>
					<g>
						<g>
							<g>
								<g>
									<path class="st5" d="M116.577,128c0,6.298,5.125,11.423,11.423,11.423s11.423-5.125,11.423-11.423
										s-5.125-11.423-11.423-11.423S116.577,121.702,116.577,128z M137.923,128c0,5.471-4.451,9.923-9.923,9.923
										s-9.923-4.451-9.923-9.923c0-5.471,4.451-9.923,9.923-9.923S137.923,122.529,137.923,128z"/>
									<path class="st5" d="M120.077,128c0,4.369,3.554,7.923,7.923,7.923s7.923-3.554,7.923-7.923
										c0-4.369-3.554-7.923-7.923-7.923S120.077,123.631,120.077,128z M134.423,128c0,3.542-2.881,6.423-6.423,6.423
										s-6.423-2.881-6.423-6.423s2.881-6.423,6.423-6.423S134.423,124.458,134.423,128z"/>
								</g>
							</g>
						</g>
					</g>
				</g>
			</g>
			<g>
				<g>
					<g>
						<g>
							<g>
								<path class="st6" d="M126.232,42.499l-21.689,21.69c-0.977,0.976-0.977,2.559,0,3.535l21.689,21.689
									c0.488,0.488,1.128,0.732,1.768,0.732s1.28-0.244,1.768-0.732l21.689-21.689c0.977-0.976,0.977-2.559,0-3.535l-21.689-21.69
									C128.83,41.56,127.17,41.56,126.232,42.499z M128,84.11l-18.154-18.154L128,47.802l18.154,18.154L128,84.11z"/>
							</g>
						</g>
					</g>
					<g>
						<g>
							<g>
								<path class="st6" d="M126.232,166.587l-21.689,21.689c-0.977,0.976-0.977,2.559,0,3.535l21.689,21.69
									c0.469,0.469,1.104,0.732,1.768,0.732s1.299-0.263,1.768-0.732l21.689-21.69c0.977-0.976,0.977-2.559,0-3.535
									l-21.689-21.689C128.792,165.61,127.208,165.61,126.232,166.587z M128,208.198l-18.154-18.154L128,171.89l18.154,18.154
									L128,208.198z"/>
							</g>
						</g>
					</g>
				</g>
				<g>
					<g>
						<g>
							<g>
								<path class="st6" d="M41.248,126.474c0,11.572,9.415,20.987,20.987,20.987s20.987-9.415,20.987-20.987
									s-9.415-20.987-20.987-20.987S41.248,114.902,41.248,126.474z M78.222,126.474c0,8.815-7.172,15.987-15.987,15.987
									c-8.815,0-15.987-7.172-15.987-15.987s7.172-15.987,15.987-15.987C71.05,110.487,78.222,117.659,78.222,126.474z"/>
							</g>
						</g>
					</g>
					<g>
						<g>
							<g>
								<path class="st6" d="M172.778,126.474c0,11.572,9.415,20.987,20.987,20.987s20.987-9.415,20.987-20.987
									s-9.415-20.987-20.987-20.987S172.778,114.902,172.778,126.474z M209.752,126.474c0,8.815-7.172,15.987-15.987,15.987
									c-8.815,0-15.987-7.172-15.987-15.987s7.172-15.987,15.987-15.987C202.581,110.487,209.752,117.659,209.752,126.474z"/>
							</g>
						</g>
					</g>
				</g>
			</g>
		</g>
		<g>
			<g>
				<g>
					<g>
						<path class="st7" d="M145.65,134.446l7.833-2.018c0.658-0.17,1.12-0.761,1.126-1.441l0.047-5.886
							c0.006-0.685-0.454-1.287-1.117-1.462l-7.889-2.085c-0.303-0.078-0.555-0.297-0.675-0.586c-0.12-0.288-0.096-0.621,0.063-0.89
							l4.111-6.966c0.345-0.585,0.254-1.33-0.223-1.814l-4.128-4.196c-0.29-0.295-0.678-0.448-1.07-0.448
							c-0.258,0-0.519,0.067-0.754,0.204l-7.054,4.105c-0.153,0.091-0.329,0.139-0.507,0.139c-0.132,0-0.26-0.026-0.383-0.077
							c-0.289-0.12-0.508-0.372-0.586-0.674l-2.018-7.833c-0.17-0.658-0.761-1.12-1.44-1.126l-5.886-0.047c-0.004,0-0.008,0-0.012,0
							c-0.68,0-1.276,0.458-1.45,1.117l-2.085,7.89c-0.078,0.302-0.297,0.554-0.586,0.674c-0.122,0.051-0.251,0.076-0.383,0.076
							c-0.179,0-0.354-0.048-0.508-0.139l-6.966-4.112c-0.237-0.14-0.5-0.208-0.762-0.208c-0.384,0-0.764,0.147-1.052,0.431
							l-4.195,4.128c-0.489,0.481-0.589,1.231-0.244,1.824l4.104,7.053c0.159,0.269,0.182,0.602,0.062,0.892
							c-0.119,0.288-0.371,0.507-0.674,0.585l-7.833,2.019c-0.658,0.17-1.12,0.761-1.126,1.44l-0.048,5.886
							c-0.006,0.685,0.454,1.287,1.117,1.462l7.89,2.085c0.302,0.078,0.554,0.297,0.674,0.586c0.12,0.288,0.096,0.621-0.063,0.891
							l-4.112,6.966c-0.346,0.585-0.254,1.33,0.223,1.815l4.128,4.195c0.29,0.294,0.678,0.448,1.07,0.448
							c0.258,0,0.519-0.067,0.754-0.204l7.055-4.105c0.153-0.09,0.328-0.138,0.507-0.138c0.132,0,0.26,0.026,0.382,0.076
							c0.289,0.12,0.508,0.372,0.586,0.674l2.018,7.833c0.17,0.658,0.761,1.12,1.44,1.126l5.886,0.047c0.004,0,0.008,0,0.012,0
							c0.68,0,1.276-0.458,1.45-1.117l2.085-7.89c0.078-0.302,0.297-0.554,0.587-0.674c0.122-0.05,0.25-0.076,0.381-0.076
							c0.178,0,0.353,0.048,0.508,0.139l6.966,4.111c0.237,0.14,0.5,0.208,0.762,0.208c0.384,0,0.764-0.147,1.052-0.431l4.196-4.128
							c0.489-0.481,0.589-1.231,0.245-1.824l-4.105-7.054c-0.159-0.269-0.182-0.601-0.063-0.89
							C145.095,134.743,145.347,134.524,145.65,134.446z M143.747,136.685l4.1,7.045l-4.196,4.128l-6.966-4.111
							c-0.39-0.231-0.829-0.348-1.27-0.348c-0.324,0-0.649,0.063-0.957,0.191c-0.726,0.301-1.269,0.925-1.464,1.686l-2.083,7.88
							l-5.886-0.047l-2.018-7.833c-0.196-0.761-0.738-1.385-1.464-1.686c-0.307-0.127-0.632-0.19-0.957-0.19
							c-0.441,0-0.881,0.117-1.271,0.347l-7.045,4.1l-4.128-4.195l4.112-6.966c0.399-0.677,0.458-1.502,0.157-2.228
							c-0.301-0.726-0.925-1.269-1.686-1.464l-7.88-2.083l0.048-5.886l7.833-2.019c0.761-0.196,1.385-0.738,1.686-1.464
							c0.301-0.726,0.243-1.551-0.157-2.228l-4.1-7.045l4.195-4.128l6.966,4.112c0.39,0.23,0.829,0.347,1.271,0.347
							c0.324,0,0.649-0.063,0.957-0.19c0.726-0.301,1.269-0.925,1.464-1.686l2.083-7.88l5.886,0.047l2.018,7.833
							c0.196,0.761,0.738,1.385,1.464,1.686c0.307,0.128,0.633,0.191,0.957,0.191c0.441,0,0.881-0.117,1.27-0.347l7.045-4.1
							l4.128,4.196l-4.111,6.966c-0.399,0.676-0.458,1.501-0.157,2.227c0.3,0.726,0.925,1.268,1.686,1.464l7.881,2.083l-0.047,5.886
							l-7.833,2.018c-0.761,0.196-1.385,0.738-1.686,1.464C143.289,135.183,143.347,136.008,143.747,136.685z"/>
						<path class="st7" d="M158.156,130.911v-5.821c0-2.31-1.562-4.327-3.798-4.906c0,0-0.001,0-0.002,0l-4.615-1.189l2.423-4.106
							c1.172-1.99,0.85-4.521-0.784-6.154l-4.116-4.116c-0.976-0.976-2.273-1.483-3.584-1.483c-0.882,0-1.771,0.23-2.573,0.701
							l-4.103,2.422l-1.19-4.617c-0.579-2.235-2.596-3.797-4.905-3.797h-5.821c-2.309,0-4.326,1.562-4.906,3.8l-1.189,4.614
							l-4.106-2.424c-0.8-0.471-1.687-0.7-2.568-0.7c-1.311,0-2.608,0.508-3.585,1.484l-4.116,4.116
							c-1.633,1.633-1.956,4.163-0.783,6.156l2.422,4.104l-4.617,1.189c-2.236,0.579-3.798,2.596-3.798,4.906v5.821
							c0,2.309,1.561,4.326,3.8,4.906l4.614,1.189l-2.424,4.106c-1.171,1.99-0.848,4.52,0.785,6.153l4.116,4.116
							c0.976,0.977,2.273,1.485,3.583,1.485c0.882,0,1.771-0.23,2.572-0.703l4.104-2.422l1.19,4.618
							c0.579,2.236,2.596,3.797,4.905,3.797h5.821c2.309,0,4.326-1.561,4.906-3.8l1.189-4.614l4.105,2.423
							c0.8,0.471,1.688,0.701,2.569,0.701c1.311,0,2.608-0.508,3.585-1.485l4.116-4.116c1.633-1.633,1.956-4.164,0.782-6.156
							l-2.422-4.104l4.618-1.19C156.595,135.237,158.156,133.22,158.156,130.911z M149.367,135.553
							c-0.456,0.118-0.831,0.443-1.011,0.879c-0.18,0.435-0.146,0.93,0.094,1.336l2.421,4.102c0.826,1.402,0.6,3.184-0.55,4.334
							l-4.116,4.116c-0.674,0.674-1.57,1.045-2.524,1.045c-0.635,0-1.26-0.171-1.807-0.493l-4.106-2.423
							c-0.234-0.138-0.498-0.208-0.763-0.208c-0.194,0-0.39,0.038-0.574,0.114c-0.435,0.18-0.761,0.555-0.879,1.012l-1.188,4.612
							c-0.408,1.576-1.829,2.676-3.454,2.676h-5.821c-1.626,0-3.046-1.099-3.453-2.671l-1.19-4.618
							c-0.118-0.456-0.443-0.831-0.879-1.011c-0.184-0.076-0.379-0.114-0.574-0.114c-0.265,0-0.528,0.07-0.762,0.208l-4.103,2.422
							c-0.549,0.324-1.175,0.495-1.81,0.495c-0.953,0-1.849-0.371-2.523-1.046l-4.116-4.116c-1.15-1.15-1.377-2.931-0.554-4.33
							l2.424-4.106c0.24-0.406,0.274-0.901,0.094-1.336c-0.18-0.435-0.555-0.761-1.012-0.879l-4.612-1.188
							c-1.576-0.408-2.676-1.829-2.676-3.454v-5.821c0-1.626,1.099-3.046,2.672-3.453l4.617-1.189
							c0.456-0.118,0.831-0.443,1.012-0.879c0.18-0.436,0.146-0.931-0.094-1.336l-2.421-4.102c-0.825-1.403-0.599-3.185,0.551-4.335
							l4.116-4.116c0.674-0.674,1.57-1.045,2.524-1.045c0.635,0,1.26,0.17,1.806,0.492l4.106,2.424
							c0.234,0.138,0.498,0.208,0.763,0.208c0.194,0,0.39-0.038,0.574-0.114c0.435-0.18,0.761-0.555,0.879-1.011l1.188-4.612
							c0.408-1.576,1.829-2.677,3.454-2.677h5.821c1.625,0,3.045,1.099,3.453,2.671l1.19,4.617c0.118,0.456,0.443,0.831,0.879,1.011
							c0.184,0.076,0.379,0.114,0.574,0.114c0.265,0,0.529-0.07,0.763-0.208l4.101-2.421c0.55-0.323,1.177-0.494,1.812-0.494
							c0.954,0,1.85,0.371,2.523,1.044l4.116,4.116c1.15,1.149,1.377,2.931,0.552,4.331l-2.423,4.106
							c-0.24,0.406-0.274,0.901-0.094,1.336c0.18,0.436,0.555,0.761,1.012,0.879l4.615,1.189c0.002,0,0.004,0.001,0.005,0.001
							c1.572,0.409,2.669,1.828,2.669,3.452v5.821c0,1.626-1.099,3.046-2.671,3.453L149.367,135.553z"/>
					</g>
				</g>
			</g>
			<g>
				<g>
					<g>
						<path class="st7" d="M128,41.795c-0.649,0-1.299,0.235-1.768,0.704l-21.689,21.69c-0.977,0.976-0.977,2.559,0,3.535
							l21.689,21.689c0.488,0.488,1.128,0.732,1.768,0.732s1.28-0.244,1.768-0.732l21.689-21.689c0.977-0.976,0.977-2.559,0-3.535
							l-21.689-21.69C129.299,42.029,128.649,41.795,128,41.795z M150.689,65.956c0,0.267-0.104,0.518-0.293,0.707l-21.69,21.69
							c-0.188,0.189-0.439,0.293-0.706,0.293s-0.518-0.104-0.707-0.293l-21.69-21.69c-0.189-0.189-0.293-0.44-0.293-0.707
							s0.104-0.518,0.293-0.707l21.69-21.69c0.168-0.168,0.425-0.264,0.706-0.264s0.539,0.096,0.707,0.265l21.69,21.69
							C150.585,65.438,150.689,65.689,150.689,65.956z"/>
						<path class="st7" d="M128,46.302c-0.398,0-0.779,0.158-1.061,0.439l-18.154,18.154c-0.586,0.586-0.586,1.536,0,2.121
							l18.154,18.154c0.293,0.293,0.677,0.439,1.061,0.439s0.768-0.146,1.061-0.439l18.154-18.154c0.586-0.586,0.586-1.536,0-2.121
							l-18.154-18.154C128.779,46.46,128.398,46.302,128,46.302z M128,84.11l-18.154-18.154L128,47.802l18.154,18.154L128,84.11z"/>
					</g>
				</g>
			</g>
			<g>
				<g>
					<g>
						<path class="st7" d="M128,165.854c-0.64,0-1.28,0.244-1.768,0.732l-21.689,21.689c-0.977,0.976-0.977,2.559,0,3.535
							l21.689,21.69c0.469,0.469,1.104,0.732,1.768,0.732s1.299-0.263,1.768-0.732l21.689-21.69c0.977-0.976,0.977-2.559,0-3.535
							l-21.689-21.689C129.28,166.099,128.64,165.854,128,165.854z M150.689,190.044c0,0.267-0.104,0.518-0.293,0.707l-21.69,21.69
							c-0.188,0.189-0.439,0.293-0.706,0.293s-0.518-0.104-0.707-0.293l-21.69-21.69c-0.189-0.189-0.293-0.44-0.293-0.707
							s0.104-0.518,0.293-0.707l21.69-21.69c0.188-0.189,0.439-0.293,0.706-0.293c0.267,0,0.518,0.104,0.707,0.293l21.69,21.69
							C150.585,189.526,150.689,189.777,150.689,190.044z"/>
						<path class="st7" d="M128,170.39c-0.384,0-0.768,0.146-1.061,0.439l-18.154,18.154c-0.586,0.586-0.586,1.536,0,2.121
							l18.154,18.154c0.281,0.281,0.663,0.439,1.061,0.439s0.779-0.158,1.061-0.439l18.154-18.154c0.586-0.586,0.586-1.536,0-2.121
							l-18.154-18.154C128.768,170.537,128.384,170.39,128,170.39z M128,208.198l-18.154-18.154L128,171.89l18.154,18.154
							L128,208.198z"/>
					</g>
				</g>
			</g>
			<g>
				<g>
					<g>
						<path class="st7" d="M44.748,126.474c0,9.642,7.845,17.487,17.487,17.487c9.642,0,17.487-7.845,17.487-17.487
							s-7.845-17.487-17.487-17.487C52.592,108.987,44.748,116.832,44.748,126.474z M78.222,126.474
							c0,8.815-7.172,15.987-15.987,15.987c-8.815,0-15.987-7.172-15.987-15.987s7.172-15.987,15.987-15.987
							C71.05,110.487,78.222,117.659,78.222,126.474z"/>
						<path class="st7" d="M41.248,126.474c0,11.572,9.415,20.987,20.987,20.987s20.987-9.415,20.987-20.987
							s-9.415-20.987-20.987-20.987S41.248,114.902,41.248,126.474z M81.722,126.474c0,10.745-8.742,19.487-19.487,19.487
							c-10.745,0-19.487-8.742-19.487-19.487s8.742-19.487,19.487-19.487C72.98,106.987,81.722,115.729,81.722,126.474z"/>
					</g>
				</g>
			</g>
			<g>
				<g>
					<g>
						<path class="st7" d="M176.278,126.474c0,9.642,7.845,17.487,17.487,17.487c9.643,0,17.487-7.845,17.487-17.487
							s-7.845-17.487-17.487-17.487C184.123,108.987,176.278,116.832,176.278,126.474z M209.752,126.474
							c0,8.815-7.172,15.987-15.987,15.987c-8.815,0-15.987-7.172-15.987-15.987s7.172-15.987,15.987-15.987
							C202.581,110.487,209.752,117.659,209.752,126.474z"/>
						<path class="st7" d="M172.778,126.474c0,11.572,9.415,20.987,20.987,20.987s20.987-9.415,20.987-20.987
							s-9.415-20.987-20.987-20.987S172.778,114.902,172.778,126.474z M213.252,126.474c0,10.745-8.742,19.487-19.487,19.487
							c-10.745,0-19.487-8.742-19.487-19.487s8.742-19.487,19.487-19.487C204.51,106.987,213.252,115.729,213.252,126.474z"/>
					</g>
				</g>
			</g>
		</g>
	</g>
</g>
</svg>
